<svg xmlns="http://www.w3.org/2000/svg" width="37" height="37" viewBox="0 0 37 37">
  <g id="vuesax_linear_edit-2" data-name="vuesax/linear/edit-2" transform="translate(-684 -252)">
    <g id="edit-2" transform="translate(684 252)">
      <path id="Vector" d="M14.281,2.219,1.624,15.616a4.7,4.7,0,0,0-1.033,2.2L.02,22.815A2.354,2.354,0,0,0,2.9,25.544L7.868,24.7A4.427,4.427,0,0,0,10.01,23.54l12.657-13.4c2.189-2.313,3.176-4.949-.231-8.171C19.045-1.219,16.47-.094,14.281,2.219Z" transform="translate(6.162 3.331)" fill="none" stroke="#fff" stroke-linecap="round" stroke-linejoin="round" stroke-width="1.5"/>
      <path id="Vector-2" data-name="Vector" d="M0,0A9.444,9.444,0,0,0,8.4,7.94" transform="translate(18.33 7.785)" fill="none" stroke="#fff" stroke-linecap="round" stroke-linejoin="round" stroke-width="1.5"/>
      <path id="Vector-3" data-name="Vector" d="M0,0H27.75" transform="translate(4.625 33.917)" fill="none" stroke="#fff" stroke-linecap="round" stroke-linejoin="round" stroke-width="1.5"/>
      <path id="Vector-4" data-name="Vector" d="M0,0H37V37H0Z" fill="none" opacity="0"/>
    </g>
  </g>
</svg>
