<svg xmlns="http://www.w3.org/2000/svg" width="24" height="24" viewBox="0 0 24 24">
  <g id="key" transform="translate(0 0)">
    <path id="Vector" d="M2.211,12.923a7.575,7.575,0,0,0,7.6,1.87l4.71,4.7a1.935,1.935,0,0,0,1.49.49l2.18-.3a1.888,1.888,0,0,0,1.5-1.5l.3-2.18a2.015,2.015,0,0,0-.49-1.49l-4.7-4.7a7.571,7.571,0,1,0-12.59,3.11Z" transform="translate(1.999 2.008)" fill="none" stroke="#fff" stroke-linecap="round" stroke-linejoin="round" stroke-width="1.5"/>
    <path id="Vector-2" data-name="Vector" d="M2.3,0,0,2.3" transform="translate(14.81 17.49)" fill="none" stroke="#fff" stroke-linecap="round" stroke-linejoin="round" stroke-width="1.5"/>
    <path id="Vector-3" data-name="Vector" d="M0,1.5A1.5,1.5,0,1,0,1.5,0,1.5,1.5,0,0,0,0,1.5Z" transform="translate(8 8)" fill="none" stroke="#fff" stroke-linecap="round" stroke-linejoin="round" stroke-width="1.5"/>
    <path id="Vector-4" data-name="Vector" d="M0,24H24V0H0Z" transform="translate(0 0)" fill="none" opacity="0"/>
  </g>
</svg>
