<svg xmlns="http://www.w3.org/2000/svg" width="24" height="24" viewBox="0 0 24 24">
  <g id="vuesax_outline_tick-square" data-name="vuesax/outline/tick-square" transform="translate(-748 -252)">
    <g id="tick-square">
      <g id="Vector" transform="translate(749.25 253.25)" fill="#fff">
        <path d="M 13.75 21 L 7.75 21 C 2.600470066070557 21 0.5 18.8995304107666 0.5 13.75 L 0.5 7.75 C 0.5 2.600470066070557 2.600470066070557 0.5 7.75 0.5 L 13.75 0.5 C 18.8995304107666 0.5 21 2.600470066070557 21 7.75 L 21 13.75 C 21 18.8995304107666 18.8995304107666 21 13.75 21 Z M 7.75 1 C 5.249849796295166 1 3.595190048217773 1.490200042724609 2.542700052261353 2.542700052261353 C 1.490200042724609 3.595190048217773 1 5.249849796295166 1 7.75 L 1 13.75 C 1 16.25015068054199 1.490200042724609 17.90480995178223 2.542700052261353 18.95730018615723 C 3.595190048217773 20.00979995727539 5.249849796295166 20.5 7.75 20.5 L 13.75 20.5 C 16.25015068054199 20.5 17.90480995178223 20.00979995727539 18.95730018615723 18.95730018615723 C 20.00979995727539 17.90480995178223 20.5 16.25015068054199 20.5 13.75 L 20.5 7.75 C 20.5 5.249849796295166 20.00979995727539 3.595190048217773 18.95730018615723 2.542700052261353 C 17.90480995178223 1.490200042724609 16.25015068054199 1 13.75 1 L 7.75 1 Z" stroke="none"/>
        <path d="M 13.75 21.5 L 7.75 21.5 C 2.319999933242798 21.5 0 19.18000030517578 0 13.75 L 0 7.75 C 0 2.319999933242798 2.319999933242798 0 7.75 0 L 13.75 0 C 19.18000030517578 0 21.5 2.319999933242798 21.5 7.75 L 21.5 13.75 C 21.5 19.18000030517578 19.18000030517578 21.5 13.75 21.5 Z M 7.75 1.5 C 3.140000104904175 1.5 1.5 3.140000104904175 1.5 7.75 L 1.5 13.75 C 1.5 18.36000061035156 3.140000104904175 20 7.75 20 L 13.75 20 C 18.36000061035156 20 20 18.36000061035156 20 13.75 L 20 7.75 C 20 3.140000104904175 18.36000061035156 1.5 13.75 1.5 L 7.75 1.5 Z" stroke="none" fill="#fff"/>
      </g>
      <g id="Vector-2" data-name="Vector" transform="translate(755.003 260.413)" fill="#fff">
        <path d="M 3.577500343322754 6.667499542236328 C 3.511150360107422 6.667499542236328 3.448490381240845 6.641379833221436 3.401050329208374 6.593949794769287 L 0.5710504055023193 3.763949632644653 C 0.4770604074001312 3.669949769973755 0.4770604074001312 3.505049705505371 0.5710504055023193 3.411049604415894 C 0.6328804492950439 3.349229574203491 0.7081404328346252 3.339999675750732 0.7475004196166992 3.339999675750732 C 0.7868604063987732 3.339999675750732 0.8621203899383545 3.349229574203491 0.9239504337310791 3.411049604415894 L 3.223950386047363 5.711049556732178 L 3.577500343322754 6.064609527587891 L 3.931050300598145 5.711049556732178 L 9.071050643920898 0.5710496306419373 C 9.132880210876465 0.5092296600341797 9.20814037322998 0.4999996423721313 9.247500419616699 0.4999996423721313 C 9.286860466003418 0.4999996423721313 9.362120628356934 0.5092296600341797 9.4239501953125 0.5710496306419373 C 9.517940521240234 0.66504967212677 9.517940521240234 0.829949676990509 9.4239501953125 0.923949658870697 L 3.753950357437134 6.593949794769287 C 3.706510305404663 6.641379833221436 3.643850326538086 6.667499542236328 3.577500343322754 6.667499542236328 Z" stroke="none"/>
        <path d="M 3.577500343322754 7.167499542236328 C 3.377500534057617 7.167499542236328 3.187500476837158 7.087499618530273 3.047500371932983 6.947499752044678 L 0.2175004184246063 4.117499828338623 C -0.07249958068132401 3.827499628067017 -0.07249958068132401 3.34749960899353 0.2175004184246063 3.057499647140503 C 0.5075004100799561 2.767499685287476 0.9875004291534424 2.767499685287476 1.27750039100647 3.057499647140503 L 3.577500343322754 5.357499599456787 L 8.717500686645508 0.2174996584653854 C 9.007499694824219 -0.07250034809112549 9.48750114440918 -0.07250034809112549 9.777500152587891 0.2174996584653854 C 10.06750011444092 0.507499635219574 10.06750011444092 0.9874996542930603 9.777500152587891 1.277499675750732 L 4.107500553131104 6.947499752044678 C 3.967500448226929 7.087499618530273 3.77750039100647 7.167499542236328 3.577500343322754 7.167499542236328 Z" stroke="none" fill="#fff"/>
      </g>
      <g id="Vector-3" data-name="Vector" transform="translate(748 252)" fill="#fff" opacity="0">
        <path d="M 23.5 23.5 L 0.5 23.5 L 0.5 0.5 L 23.5 0.5 L 23.5 23.5 Z" stroke="none"/>
        <path d="M 1 1 L 1 23 L 23 23 L 23 1 L 1 1 M 0 0 L 24 0 L 24 24 L 0 24 L 0 0 Z" stroke="none" fill="#fff"/>
      </g>
    </g>
  </g>
</svg>
